<?xml version="1.0" encoding="UTF-8" standalone="no"?>
<!DOCTYPE svg PUBLIC "-//W3C//DTD SVG 1.1//EN" "http://www.w3.org/Graphics/SVG/1.1/DTD/svg11.dtd">
<svg xmlns="http://www.w3.org/2000/svg" xmlns:xlink="http://www.w3.org/1999/xlink" xmlns:ev="http://www.w3.org/2001/xml-events"
		width="6.13753in" height="1.09387in" viewBox="0 0 441.902 78.7588" xml:space="preserve" color-interpolation-filters="sRGB"
		class="st11">
	<title>Diagrama codificación Hammer</title>

	<style type="text/css">
	<![CDATA[
		.st1 {fill:#ffffff;stroke:#000000;stroke-linecap:round;stroke-linejoin:round;stroke-width:0.24}
		.st2 {fill:#000000;font-family:Source Sans Pro, Arial, sans-serif;font-size:0.666664em}
		.st3 {baseline-shift:-33.3488%;font-size:0.666976em}
		.st4 {fill:none;stroke:none;stroke-linecap:round;stroke-linejoin:round;stroke-width:0.75}
		.st5 {fill:#000000;font-family:Source Sans Pro, Arial, sans-serif;font-size:0.833336em}
		.st6 {fill:#ffffff;stroke:#000000;stroke-linecap:round;stroke-linejoin:round;stroke-width:0.24;visibility:hidden}
		.st7 {marker-end:url(#mrkr4-98);stroke:#000000;stroke-linecap:butt;stroke-width:0.75}
		.st8 {fill:#000000;fill-opacity:1;stroke:#000000;stroke-opacity:1;stroke-width:0.22935779816514}
		.st9 {font-size:0.799995em}
		.st10 {fill:#ffffff;stroke:none;stroke-linecap:butt;stroke-width:7.2}
		.st11 {fill:none;fill-rule:evenodd;font-size:12px;overflow:visible;stroke-linecap:square;stroke-miterlimit:3}
	]]>
	</style>

	<defs id="Markers">
		<g id="lend4">
			<path d="M 2 1 L 0 0 L 2 -1 L 2 1 " style="stroke:none"/>
		</g>
		<marker id="mrkr4-98" class="st8" refX="-8.72" orient="auto" markerUnits="strokeWidth" overflow="visible">
			<use xlink:href="#lend4" transform="scale(-4.36,-4.36) "/>
		</marker>
	</defs>
	<g>
		<title>Página-1</title>
		<g id="group1-1" transform="translate(0.375,-38.2048)">
			<title>Matriz</title>
			<g id="shape2-2" transform="translate(135.301,0)">
				<title>Hoja.2</title>
				<desc>b0</desc>
				<rect x="0" y="64.5856" width="19.3287" height="14.1732" class="st1"/>
				<text x="6.13" y="74.07" class="st2">b<tspan dy="-0.289em" class="st3">0</tspan></text>			</g>
			<g id="shape3-6" transform="translate(115.972,0)">
				<title>Hoja.3</title>
				<desc>b1</desc>
				<rect x="0" y="64.5856" width="19.3287" height="14.1732" class="st1"/>
				<text x="6.13" y="74.07" class="st2">b<tspan dy="-0.289em" class="st3">1</tspan></text>			</g>
			<g id="shape4-10" transform="translate(96.6437,0)">
				<title>Hoja.4</title>
				<desc>b2</desc>
				<rect x="0" y="64.5856" width="19.3287" height="14.1732" class="st1"/>
				<text x="6.13" y="74.07" class="st2">b<tspan dy="-0.289em" class="st3">2</tspan></text>			</g>
			<g id="shape5-14" transform="translate(77.315,0)">
				<title>Hoja.5</title>
				<desc>b3</desc>
				<rect x="0" y="64.5856" width="19.3287" height="14.1732" class="st1"/>
				<text x="6.13" y="74.07" class="st2">b<tspan dy="-0.289em" class="st3">3</tspan></text>			</g>
			<g id="shape6-18" transform="translate(57.9862,0)">
				<title>Hoja.6</title>
				<desc>b4</desc>
				<rect x="0" y="64.5856" width="19.3287" height="14.1732" class="st1"/>
				<text x="6.13" y="74.07" class="st2">b<tspan dy="-0.289em" class="st3">4</tspan></text>			</g>
			<g id="shape7-22" transform="translate(38.6575,0)">
				<title>Hoja.7</title>
				<desc>b5</desc>
				<rect x="0" y="64.5856" width="19.3287" height="14.1732" class="st1"/>
				<text x="6.13" y="74.07" class="st2">b<tspan dy="-0.289em" class="st3">5</tspan></text>			</g>
			<g id="shape8-26" transform="translate(19.3287,0)">
				<title>Hoja.8</title>
				<desc>b6</desc>
				<rect x="0" y="64.5856" width="19.3287" height="14.1732" class="st1"/>
				<text x="6.13" y="74.07" class="st2">b<tspan dy="-0.289em" class="st3">6</tspan></text>			</g>
			<g id="shape9-30">
				<title>Hoja.9</title>
				<desc>b7</desc>
				<rect x="0" y="64.5856" width="19.3287" height="14.1732" class="st1"/>
				<text x="6.13" y="74.07" class="st2">b<tspan dy="-0.289em" class="st3">7</tspan></text>			</g>
		</g>
		<g id="shape40-34" transform="translate(0.375,-15.1781)">
			<title>Hoja.40</title>
			<desc>Byte de entrada</desc>
			<rect x="0" y="58.7588" width="155.108" height="20" class="st4"/>
			<text x="44.4" y="71.76" class="st5">Byte de entrada</text>		</g>
		<g id="shape43-37" transform="translate(190.916,-35.8081)">
			<title>Hoja.43</title>
			<desc>Nibble 1</desc>
			<rect x="0" y="58.7588" width="77.9528" height="20" class="st4"/>
			<text x="25.19" y="71.16" class="st2">Nibble 1</text>		</g>
		<g id="shape44-40" transform="translate(190.916,-0.375)">
			<title>Hoja.44</title>
			<desc>Nibble 2</desc>
			<rect x="0" y="58.7588" width="77.9528" height="20" class="st4"/>
			<text x="25.19" y="71.16" class="st2">Nibble 2</text>		</g>
		<g id="group45-43" transform="translate(190.208,-56.438)">
			<title>Matriz.45</title>
			<g id="shape46-44" transform="translate(135.301,0)">
				<title>Hoja.46</title>
				<desc>b0</desc>
				<rect x="0" y="64.5856" width="19.3287" height="14.1732" class="st6"/>
			</g>
			<g id="shape47-46" transform="translate(115.972,0)">
				<title>Hoja.47</title>
				<desc>b1</desc>
				<rect x="0" y="64.5856" width="19.3287" height="14.1732" class="st6"/>
			</g>
			<g id="shape48-48" transform="translate(96.6437,0)">
				<title>Hoja.48</title>
				<desc>b2</desc>
				<rect x="0" y="64.5856" width="19.3287" height="14.1732" class="st6"/>
			</g>
			<g id="shape49-50" transform="translate(77.315,0)">
				<title>Hoja.49</title>
				<desc>b3</desc>
				<rect x="0" y="64.5856" width="19.3287" height="14.1732" class="st6"/>
			</g>
			<g id="shape50-52" transform="translate(57.9862,0)">
				<title>Hoja.50</title>
				<desc>b0</desc>
				<rect x="0" y="64.5856" width="19.3287" height="14.1732" class="st1"/>
				<text x="6.13" y="74.07" class="st2">b<tspan dy="-0.289em" class="st3">0</tspan></text>			</g>
			<g id="shape51-56" transform="translate(38.6575,0)">
				<title>Hoja.51</title>
				<desc>b1</desc>
				<rect x="0" y="64.5856" width="19.3287" height="14.1732" class="st1"/>
				<text x="6.13" y="74.07" class="st2">b<tspan dy="-0.289em" class="st3">1</tspan></text>			</g>
			<g id="shape52-60" transform="translate(19.3287,0)">
				<title>Hoja.52</title>
				<desc>b2</desc>
				<rect x="0" y="64.5856" width="19.3287" height="14.1732" class="st1"/>
				<text x="6.13" y="74.07" class="st2">b<tspan dy="-0.289em" class="st3">2</tspan></text>			</g>
			<g id="shape53-64">
				<title>Hoja.53</title>
				<desc>b3</desc>
				<rect x="0" y="64.5856" width="19.3287" height="14.1732" class="st1"/>
				<text x="6.13" y="74.07" class="st2">b<tspan dy="-0.289em" class="st3">3</tspan></text>			</g>
		</g>
		<g id="group54-68" transform="translate(190.916,-21.0049)">
			<title>Matriz.54</title>
			<g id="shape55-69" transform="translate(135.301,0)">
				<title>Hoja.55</title>
				<desc>b0</desc>
				<rect x="0" y="64.5856" width="19.3287" height="14.1732" class="st6"/>
			</g>
			<g id="shape56-71" transform="translate(115.972,0)">
				<title>Hoja.56</title>
				<desc>b1</desc>
				<rect x="0" y="64.5856" width="19.3287" height="14.1732" class="st6"/>
			</g>
			<g id="shape57-73" transform="translate(96.6437,0)">
				<title>Hoja.57</title>
				<desc>b2</desc>
				<rect x="0" y="64.5856" width="19.3287" height="14.1732" class="st6"/>
			</g>
			<g id="shape58-75" transform="translate(77.315,0)">
				<title>Hoja.58</title>
				<desc>b3</desc>
				<rect x="0" y="64.5856" width="19.3287" height="14.1732" class="st6"/>
			</g>
			<g id="shape59-77" transform="translate(57.9862,0)">
				<title>Hoja.59</title>
				<desc>b4</desc>
				<rect x="0" y="64.5856" width="19.3287" height="14.1732" class="st1"/>
				<text x="6.13" y="74.07" class="st2">b<tspan dy="-0.289em" class="st3">4</tspan></text>			</g>
			<g id="shape60-81" transform="translate(38.6575,0)">
				<title>Hoja.60</title>
				<desc>b5</desc>
				<rect x="0" y="64.5856" width="19.3287" height="14.1732" class="st1"/>
				<text x="6.13" y="74.07" class="st2">b<tspan dy="-0.289em" class="st3">5</tspan></text>			</g>
			<g id="shape61-85" transform="translate(19.3287,0)">
				<title>Hoja.61</title>
				<desc>b6</desc>
				<rect x="0" y="64.5856" width="19.3287" height="14.1732" class="st1"/>
				<text x="6.13" y="74.07" class="st2">b<tspan dy="-0.289em" class="st3">6</tspan></text>			</g>
			<g id="shape62-89">
				<title>Hoja.62</title>
				<desc>b7</desc>
				<rect x="0" y="64.5856" width="19.3287" height="14.1732" class="st1"/>
				<text x="6.13" y="74.07" class="st2">b<tspan dy="-0.289em" class="st3">7</tspan></text>			</g>
		</g>
		<g id="shape63-93" transform="translate(155.005,-45.2914)">
			<title>Conector dinámico</title>
			<path d="M0 78.76 L11.11 78.76 L11.11 60.53 L28.66 60.53" class="st7"/>
		</g>
		<g id="shape64-99" transform="translate(155.005,-45.2914)">
			<title>Conector dinámico.64</title>
			<path d="M0 78.76 L11.11 78.76 L11.11 95.96 L29.37 95.96" class="st7"/>
		</g>
		<g id="shape104-104" transform="translate(328.397,-45.3829)">
			<title>Rectángulo</title>
			<desc>Palabra código 1 (1 byte)</desc>
			<rect x="0" y="45.5029" width="113.386" height="33.2559" class="st1"/>
			<text x="21.82" y="59.13" class="st5">Palabra código 1<tspan x="44.07" dy="1.5em" class="st9">(</tspan><tspan
						class="st9">1 </tspan><tspan class="st9">byte</tspan><tspan class="st9">)</tspan></text>		</g>
		<g id="shape139-111" transform="translate(328.397,-12.9774)">
			<title>Rectángulo.139</title>
			<desc>Palabra código 2 (1 byte)</desc>
			<rect x="0" y="46.3533" width="113.386" height="32.4055" class="st1"/>
			<text x="21.82" y="59.56" class="st5">Palabra código 2<tspan x="44.07" dy="1.5em" class="st9">(</tspan><tspan
						class="st9">1 </tspan><tspan class="st9">byte</tspan><tspan class="st9">)</tspan></text>		</g>
		<g id="shape140-118" transform="translate(267.523,-69.8543)">
			<title>Conector dinámico.140</title>
			<desc>HA(3, 2)</desc>
			<path d="M0 85.09 L54.34 86.44" class="st7"/>
			<rect x="17.4573" y="81.0457" width="25.9596" height="9.59985" class="st10"/>
			<text x="17.46" y="88.25" class="st2">HA(3, 2)</text>		</g>
		<g id="shape141-125" transform="translate(268.231,-21.5492)">
			<title>Conector dinámico.141</title>
			<desc>HA(3, 2)</desc>
			<path d="M0 72.22 L53.63 71.25" class="st7"/>
			<rect x="17.1029" y="66.8724" width="25.9596" height="9.59985" class="st10"/>
			<text x="17.1" y="74.07" class="st2">HA(3, 2)</text>		</g>
	</g>
</svg>
